<?xml version="1.0" encoding="UTF-8"?>
<svg id="Layer_1" xmlns="http://www.w3.org/2000/svg" xmlns:xlink="http://www.w3.org/1999/xlink" viewBox="0 0 667.85 304.59">
  <defs>
    <style>
      .cls-1 {
        fill: #692c90;
        stroke: #2e3192;
      }

      .cls-1, .cls-2, .cls-3, .cls-4, .cls-5, .cls-6, .cls-7 {
        stroke-miterlimit: 10;
      }

      .cls-8 {
        stroke: #8c75b5;
      }

      .cls-8, .cls-9, .cls-10, .cls-11, .cls-12, .cls-13, .cls-14 {
        fill: none;
      }

      .cls-8, .cls-10, .cls-11, .cls-12 {
        stroke-linejoin: round;
        stroke-width: 4.5px;
      }

      .cls-15 {
        fill: #fdbe11;
      }

      .cls-9 {
        stroke: #16498a;
      }

      .cls-9, .cls-13, .cls-14 {
        stroke-miterlimit: 8;
      }

      .cls-2 {
        fill: #e78424;
      }

      .cls-2, .cls-3, .cls-7 {
        stroke-width: 2px;
      }

      .cls-2, .cls-10, .cls-7 {
        stroke: #000001;
      }

      .cls-16, .cls-17, .cls-18 {
        fill: #231f20;
      }

      .cls-3 {
        fill: #442d7c;
        stroke: #452d7c;
      }

      .cls-3, .cls-7 {
        fill-rule: evenodd;
      }

      .cls-4 {
        fill: #00a14b;
      }

      .cls-4, .cls-5, .cls-6 {
        stroke: #231f20;
      }

      .cls-4, .cls-5, .cls-6, .cls-13 {
        stroke-width: .5px;
      }

      .cls-19 {
        fill: url(#linear-gradient);
      }

      .cls-17 {
        font-size: 11px;
        letter-spacing: 0em;
      }

      .cls-17, .cls-18, .cls-20 {
        font-family: ArialMT, Arial;
      }

      .cls-21 {
        fill: #000001;
      }

      .cls-22 {
        fill: #ed1c24;
      }

      .cls-23 {
        fill: #01abe3;
      }

      .cls-18 {
        font-size: 12px;
        letter-spacing: 0em;
      }

      .cls-11, .cls-14 {
        stroke: #ed1c24;
      }

      .cls-24 {
        fill: #00ae4c;
      }

      .cls-12 {
        stroke: #191919;
      }

      .cls-5 {
        fill: #21409a;
      }

      .cls-6 {
        fill: #7f3f98;
      }

      .cls-13 {
        stroke: #2b3990;
      }

      .cls-25 {
        fill: #f6eb00;
      }

      .cls-26 {
        fill: #90c848;
      }

      .cls-27 {
        fill: #3d6cb4;
      }

      .cls-14 {
        stroke-width: 4px;
      }

      .cls-7 {
        fill: #ec4924;
      }

      .cls-28 {
        fill: #82d4f1;
      }

      .cls-20 {
        fill: #f1f2f2;
        font-size: 15px;
        letter-spacing: 0em;
      }
    </style>
    <linearGradient id="linear-gradient" x1="81.28" y1="154.45" x2="93.93" y2="154.45" gradientUnits="userSpaceOnUse">
      <stop offset="0" stop-color="#fff"/>
      <stop offset="1" stop-color="#231f20"/>
    </linearGradient>
  </defs>
  <rect class="cls-28" x="6.34" y="4.54" width="655.2" height="295.2" rx="18" ry="18"/>
  <g>
    <path class="cls-7" d="M158.8,185.25l-1.37,13.25c-.03.27-.32.42-.56.28l-9.42-5.44c-.23-.14-.25-.47-.03-.62l10.79-7.81c.26-.19.62.02.59.34Z"/>
    <path class="cls-7" d="M193.17,185.25l1.37,13.25c.03.27.32.42.56.28l9.42-5.44c.23-.14.25-.47.03-.62l-10.79-7.81c-.26-.19-.62.02-.59.34Z"/>
    <g>
      <path class="cls-3" d="M147.18,133.16c0-5.26,4.3-9.52,9.6-9.52h38.4c5.3,0,9.6,4.26,9.6,9.52v38.57c0,5.26-4.3,9.52-9.6,9.52h-38.4c-5.3,0-9.6-4.26-9.6-9.52v-38.57Z"/>
      <text class="cls-20" transform="translate(150 156.44)"><tspan x="0" y="0">MSGF+</tspan></text>
    </g>
    <g>
      <path class="cls-3" d="M147.02,55.45c0-5.26,4.3-9.52,9.6-9.52h38.4c5.3,0,9.6,4.26,9.6,9.52v38.57c0,5.26-4.3,9.52-9.6,9.52h-38.4c-5.3,0-9.6-4.26-9.6-9.52v-38.57Z"/>
      <text class="cls-20" transform="translate(152.13 78.73)"><tspan x="0" y="0">MASIC</tspan></text>
    </g>
    <text class="cls-18" transform="translate(54.99 41.34)"><tspan x="0" y="0">Raw LC-MS/MS</tspan></text>
    <g>
      <path class="cls-7" d="M296.78,96.4l-13.25-1.37c-.27-.03-.42-.32-.28-.56l5.44-9.42c.14-.23.47-.25.62-.03l7.81,10.79c.19.26-.02.62-.34.59Z"/>
      <path class="cls-7" d="M296.78,130.77l-13.25,1.37c-.27.03-.42.32-.28.56l5.44,9.42c.14.23.47.25.62.03l7.81-10.79c.19-.26-.02-.62-.34-.59Z"/>
    </g>
    <g>
      <g>
        <circle class="cls-2" cx="253.69" cy="152.44" r="28.8"/>
        <g>
          <ellipse class="cls-27" cx="240.84" cy="138.59" rx="4.91" ry="4.76"/>
          <ellipse class="cls-9" cx="240.84" cy="138.59" rx="4.91" ry="4.76"/>
          <circle class="cls-22" cx="249.62" cy="140.08" r="4.76"/>
          <circle class="cls-9" cx="249.62" cy="140.08" r="4.76"/>
          <circle class="cls-25" cx="258.25" cy="139.79" r="4.76"/>
          <circle class="cls-9" cx="258.25" cy="139.79" r="4.76"/>
          <circle class="cls-24" cx="264.81" cy="146.34" r="4.76"/>
          <circle class="cls-9" cx="264.81" cy="146.34" r="4.76"/>
          <circle class="cls-26" cx="270.76" cy="153.78" r="4.76"/>
          <circle class="cls-9" cx="270.76" cy="153.78" r="4.76"/>
          <circle class="cls-23" cx="264.21" cy="160.92" r="4.76"/>
          <circle class="cls-9" cx="264.21" cy="160.92" r="4.76"/>
          <circle class="cls-25" cx="257.96" cy="166.28" r="4.76"/>
          <circle class="cls-9" cx="257.96" cy="166.28" r="4.76"/>
          <circle class="cls-1" cx="249.92" cy="162.41" r="4.76"/>
          <text/>
          <circle class="cls-15" cx="242.18" cy="166.28" r="4.76"/>
          <circle class="cls-9" cx="242.18" cy="166.28" r="4.76"/>
        </g>
      </g>
      <g>
        <circle class="cls-2" cx="253.53" cy="74.73" r="28.8"/>
        <path class="cls-14" d="M233.73,90.73c1.22.38,2.98.67,4.74-.09,4.34-1.88,5.67-8.38,8.2-17.39.88-3.14,3.7-15.08,6.83-14.89h.04c3.14-.18,5.95,11.75,6.83,14.89,2.53,9,3.86,15.5,8.2,17.39,1.77.77,3.52.47,4.74.09"/>
      </g>
    </g>
    <path class="cls-7" d="M220.91,75.07l-12.16,5.44c-.25.11-.52-.07-.52-.34v-10.88c0-.27.28-.45.52-.34l12.16,5.44c.29.13.29.55,0,.68Z"/>
    <path class="cls-7" d="M221.07,152.78l-12.16,5.44c-.25.11-.52-.07-.52-.34v-10.88c0-.27.28-.45.52-.34l12.16,5.44c.29.13.29.55,0,.68Z"/>
    <text class="cls-18" transform="translate(222.83 41.68)"><tspan x="0" y="0">Peak Areas</tspan></text>
    <text class="cls-18" transform="translate(237.44 191.9)"><tspan x="0" y="0">Identified Peptide</tspan><tspan x="16.18" y="14.4">Sequences</tspan></text>
    <text class="cls-18" transform="translate(375.54 217.4)"><tspan x="0" y="0">Merge</tspan><tspan x="-8.27" y="14.4">Resultant</tspan><tspan x="5.3" y="28.8">TSV</tspan></text>
    <g>
      <circle class="cls-2" cx="98.11" cy="152.44" r="28.8"/>
      <g>
        <g>
          <line class="cls-19" x1="81.28" y1="161.04" x2="93.93" y2="147.86"/>
          <polygon class="cls-16" points="81.45 161.21 91.74 150.49 92.99 151.69 93.93 147.86 90.14 148.96 91.39 150.16 81.1 160.88 81.45 161.21"/>
        </g>
        <polygon class="cls-16" points="81.17 161.65 91.91 160.06 92.03 160.89 94.09 159.26 91.65 158.29 91.77 159.12 81.03 160.71 81.17 161.65"/>
        <polygon class="cls-16" points="80.87 161.27 90.86 167.09 89.99 168.59 93.93 168.61 91.97 165.18 91.1 166.68 81.11 160.86 80.87 161.27"/>
        <polygon class="cls-16" points="81.48 143.91 90.53 145.65 90.2 147.36 93.93 146.07 90.94 143.48 90.62 145.19 81.57 143.44 81.48 143.91"/>
        <polygon class="cls-16" points="81.49 144.26 92.23 138.8 92.61 139.54 94.04 137.34 91.42 137.2 91.8 137.95 81.06 143.41 81.49 144.26"/>
        <polygon class="cls-16" points="80.94 144.17 92.23 155.3 91.64 155.9 94.19 156.56 93.49 154.02 92.9 154.62 81.61 143.49 80.94 144.17"/>
        <polygon class="cls-16" points="102.12 136.44 113.89 149.04 112.62 150.22 116.4 151.38 115.51 147.53 114.24 148.72 102.47 136.11 102.12 136.44"/>
        <polygon class="cls-16" points="101.5 148.14 112.52 153.12 112.17 153.89 114.79 153.63 113.26 151.49 112.91 152.26 101.89 147.27 101.5 148.14"/>
        <polygon class="cls-16" points="102.34 158.06 111.65 156.27 111.98 157.97 114.96 155.39 111.23 154.1 111.56 155.8 102.25 157.59 102.34 158.06"/>
        <polygon class="cls-16" points="101.92 169.02 114.48 158.99 115 159.64 115.96 157.2 113.36 157.59 113.88 158.24 101.33 168.28 101.92 169.02"/>
        <g>
          <circle class="cls-5" cx="98.11" cy="147.05" r="4.18"/>
          <circle class="cls-5" cx="98.11" cy="136.27" r="4.18"/>
          <circle class="cls-5" cx="98.11" cy="157.83" r="4.18"/>
          <circle class="cls-5" cx="98.11" cy="168.61" r="4.18"/>
        </g>
        <g>
          <circle class="cls-4" cx="77.09" cy="143.83" r="4.18"/>
          <circle class="cls-4" cx="77.09" cy="161.04" r="4.18"/>
        </g>
        <circle class="cls-6" cx="119.13" cy="154.16" r="4.18"/>
      </g>
    </g>
    <text class="cls-18" transform="translate(28.23 134.04)"><tspan x="0" y="0">Kaiko </tspan><tspan x="-1.98" y="14.4">(neural</tspan><tspan x="-4.31" y="28.8">network</tspan><tspan x="-1.66" y="43.2">model)</tspan></text>
    <path class="cls-7" d="M139.7,116.95l-12.45-4.75c-.25-.1-.32-.42-.13-.61l7.7-7.7c.19-.19.52-.12.61.13l4.75,12.45c.11.3-.18.6-.48.48Z"/>
    <g>
      <circle class="cls-2" cx="130" cy="225.73" r="28.8"/>
      <g>
        <line class="cls-11" x1="110.2" y1="216.23" x2="119.8" y2="216.23"/>
        <line class="cls-12" x1="140.2" y1="216.23" x2="149.8" y2="216.23"/>
        <line class="cls-11" x1="114.7" y1="222.73" x2="124.3" y2="222.73"/>
        <line class="cls-8" x1="120.7" y1="244.73" x2="135.1" y2="244.73"/>
        <line class="cls-8" x1="130.7" y1="238.73" x2="140.3" y2="238.73"/>
        <line class="cls-8" x1="118.2" y1="236.23" x2="127.8" y2="236.23"/>
        <line class="cls-11" x1="115.7" y1="206.73" x2="130.1" y2="206.73"/>
        <line class="cls-10" x1="133.7" y1="222.73" x2="148.1" y2="222.73"/>
        <line class="cls-10" x1="136.2" y1="208.73" x2="145.8" y2="208.73"/>
      </g>
    </g>
    <g>
      <circle class="cls-2" cx="217.67" cy="225.73" r="28.8"/>
      <g>
        <line class="cls-11" x1="197.87" y1="216.23" x2="207.47" y2="216.23"/>
        <line class="cls-12" x1="227.87" y1="216.23" x2="237.47" y2="216.23"/>
        <line class="cls-11" x1="202.37" y1="222.73" x2="211.97" y2="222.73"/>
        <line class="cls-8" x1="208.37" y1="244.73" x2="222.77" y2="244.73"/>
        <line class="cls-8" x1="218.37" y1="238.73" x2="227.97" y2="238.73"/>
        <line class="cls-8" x1="205.87" y1="236.23" x2="215.47" y2="236.23"/>
        <line class="cls-11" x1="203.37" y1="206.73" x2="217.77" y2="206.73"/>
        <line class="cls-10" x1="221.37" y1="222.73" x2="235.77" y2="222.73"/>
        <line class="cls-10" x1="223.87" y1="208.73" x2="233.47" y2="208.73"/>
      </g>
    </g>
    <g>
      <text class="cls-17" transform="translate(111.49 265.55)"><tspan x="0" y="0">In-silico</tspan></text>
      <text class="cls-17" transform="translate(201.22 265.55)"><tspan x="0" y="0">NMDC</tspan></text>
    </g>
    <path class="cls-7" d="M119.82,192.92l-1.37-13.25c-.03-.27-.32-.42-.56-.28l-9.42,5.44c-.23.14-.25.47-.03.62l10.79,7.81c.26.19.62-.02.59-.34Z"/>
    <g>
      <circle class="cls-2" cx="98.11" cy="74.73" r="28.8"/>
      <polyline class="cls-13" points="75.58 89.35 76.37 90.33 77.17 89.34 77.2 88.46 77.22 90.28 77.82 89.4 78 86.98 78.06 90.41 78.32 87.44 78.56 89.51 78.61 90.18 78.61 85.96 78.79 88.08 78.97 90.63 79.32 89.51 79.39 85.84 79.57 86.09 79.62 88.21 79.76 84.97 79.91 90.49 80.2 89.84 80.25 85.3 80.59 90.42 80.73 88.62 80.77 86.43 80.83 79.98 80.83 89.94 80.98 85.91 81.19 88.72 81.22 81.8 81.2 83.28 81.3 80.57 81.56 90.26 81.67 89.03 81.69 75.87 81.69 85.85 81.85 82.28 81.82 84.69 81.85 87.37 81.95 84.31 81.97 73.84 82.03 72.94 82.06 86.64 82.21 88.29 82.32 87.28 82.43 81.41 82.47 71.77 82.63 90.19 83.05 86.93 83.08 82.59 83.02 83.62 83.18 72.53 83.13 77.68 83.23 89.41 83.42 87.75 83.47 84.6 83.6 89.19 83.7 87.56 83.83 88.73 83.8 78.36 83.94 87.12 83.97 79.87 83.99 78.66 84.09 75.78 84.1 88.23 84.22 85.88 84.23 88.55 84.41 79.15 84.35 83.59 84.51 80.77 84.56 86.8 84.7 82.64 84.72 78.95 84.88 87.75 85.01 76.78 84.96 81.73 84.98 84.78 85.19 80.09 85.27 80.55 85.29 73.88 85.38 89.1 85.48 88.36 85.54 86.8 85.79 81.1 85.74 82.57 85.76 87.71 85.8 88.51 85.9 89.3 86 86.91 86.01 87.02 86.03 84.56 86.13 85.26 86.24 79.54 86.29 67.76 86.26 87.04 86.37 84.93 86.4 79.84 86.42 79.03 86.45 67.88 86.47 64.2 86.5 76.69 86.58 80.55 86.7 71.51 86.66 72.17 86.73 84.13 86.87 78 86.89 84.35 87.02 81.95 87.05 79.47 87 84.53 87.02 87.64 87.29 88.21 87.2 83.54 87.39 87.08 87.47 73.7 87.44 80.17 87.54 76.01 87.57 75.19 87.52 81.23 87.54 85.56 87.65 82.82 87.67 78.82 87.73 67.64 87.7 68.77 87.83 86.36 87.96 79.72 88.09 81.33 88.15 87.81 88.28 82.17 88.33 85.59 88.41 87.33 88.43 88.15 88.54 85.44 88.61 85.98 88.69 71.26 88.7 82.46 88.82 75.34 88.85 67.63 88.93 86.03 89.06 84.52 89.09 81.18 89.08 88.8 89.22 85.41 89.24 80.28 89.51 83.64 89.66 77.21 89.71 80.08 89.79 74.62 89.84 86.86 89.95 87.89 89.98 81.58 90.06 86.64 90.05 87.15 90.21 76.92 90.23 72.22 90.27 57.07 90.21 64.53 90.24 75.46 90.26 83.78 90.52 77.02 90.55 87.34 90.65 83.36 90.68 82.03 90.71 76.48 90.7 87.08 90.84 84.49 90.94 65.43 90.91 72.44 90.94 82.08 91.15 73.9 91.1 79.6 91.12 85.41 91.26 84.74 91.23 85.77 91.36 77.14 91.41 87.86 91.51 82.65 91.55 69.67 91.49 73.2 91.52 77.27 91.54 83.56 91.57 85.4 91.68 84.69 91.7 81.97 91.72 75.63 91.77 86.86 91.89 79.97 91.91 73.02 91.94 88.7 92.14 81.8 92.09 83.38 92.12 86.9 92.3 76.59 92.27 81.84 92.3 86.61 92.41 85.92 92.43 85.14 92.46 77.57 92.48 75.64 92.56 69.66 92.53 78.05 92.64 73.45 92.67 78.96 92.74 87.96 92.88 87.04 92.96 78.36 93.03 79.75 93.06 73.33 93.19 81.68 93.32 77.24 93.34 63.83 93.38 59.17 93.32 64.2 93.35 73.49 93.37 79.29 93.47 86.8 93.71 77.68 93.74 61.15 93.79 82.74 93.81 85.8 93.92 79.77 93.95 73.55 93.97 88.79 94.13 65.95 94.13 76.51 94.16 80.73 94.18 81.51 94.29 77.36 94.52 85 94.55 87.34 94.65 81.07 94.65 84.45 94.68 87.83 94.79 85.63 94.81 80.89 94.84 88.98 94.96 75.32 95.02 73.04 95.02 86.62 95.15 84.34 95.17 82.85 95.28 64.71 95.23 68.12 95.3 84.36 95.44 81.68 95.44 87.38 95.57 77.49 95.51 79.15 95.62 77.09 95.57 82.02 95.64 89.75 95.83 85.93 95.86 75.1 95.88 66.06 95.83 72.04 95.85 84.57 95.88 87.46 96.01 73.93 95.96 77.91 96.07 76.3 96.12 66.02 96.12 82.56 96.22 81.36 96.27 87.3 96.45 84.21 96.43 87.37 96.5 87.46 96.56 86.54 96.61 86.61 96.77 83.4 96.79 83.89 96.95 76.15 96.9 77.74 97 76.96 97.03 87.62 97.16 86.09 97.19 81.03 97.21 68.23 97.24 65.17 97.24 81.18 97.34 89.01 97.45 85.71 97.58 75.92 97.61 64.09 97.55 69.67 97.58 73.34 97.61 76.21 97.73 73.12 97.76 81.44 97.86 76.47 97.94 66.06 97.95 77.8 98.05 76.58 98.03 80.52 98.13 79.39 98.18 67.88 98.24 84.87 98.34 80.59 98.37 81.18 98.39 73.33 98.45 79.4 98.47 85.01 98.57 78.96 98.6 73.44 98.57 82.78 98.7 77.74 98.73 84.13 98.86 76.38 98.83 83.66 98.86 87.78 98.99 86.87 99.04 85.42 99.1 75.1 99.17 80.79 99.25 87.37 99.35 83.29 99.36 84.46 99.39 77.68 99.46 82.03 99.49 76.65 99.52 69.85 99.57 83.78 99.72 75.34 99.67 78.05 99.75 85.66 99.85 84.82 99.88 80.5 99.88 90.45 100.11 86.04 100.07 87.5 100.19 78.48 100.14 80.08 100.25 78.34 100.27 65.69 100.3 64.23 100.24 69.92 100.27 77.75 100.38 75.53 100.4 85.84 100.48 86 100.59 81.44 100.64 83.01 100.61 76.05 100.74 80.92 100.82 76.52 100.79 85.27 100.93 76.37 100.87 79.15 100.9 85.42 100.93 86.77 101.03 81.22 101.11 64.07 101.06 67.36 101.08 75.28 101.1 80.72 101.24 80.56 101.21 82.57 101.32 81.18 101.34 77.03 101.37 64.77 101.39 77.16 101.5 76 101.52 87.13 101.63 86 101.65 87.74 101.79 84.05 101.89 58.89 101.97 87.02 102.1 89.72 102.23 88.93 102.25 87.09 102.34 74.65 102.39 89.7 102.42 90.58 102.63 85.12 102.65 86.02 102.65 81.21 102.8 84.12 102.83 71.88 102.97 87.88 103.07 85.66 103.09 80.93 103.22 89.42 103.36 86.97 103.54 66.95 103.48 73.81 103.59 89.61 103.62 90.23 103.83 87.75 103.85 85.19 103.88 90.37 104.17 91.03 104.35 90.4 104.58 87.93 104.66 82.61 104.69 75.45 104.79 87.84 105.03 85.92 105.08 88.06 105.26 86.64 105.32 84.63 105.36 70.36 105.39 89.48 105.55 85.64 105.66 89.32 105.83 89.97 105.84 86.53 105.97 89.08 106.05 72.06 106 78.05 106.08 89.7 106.28 87.74 106.31 89.37 106.47 85.26 106.49 73.02 106.52 67.59 106.46 71.2 106.54 88.13 106.65 66.2 106.67 61.03 106.78 85.55 106.88 82.35 106.91 77.36 106.91 89.58 107.01 90.28 107.19 88.28 107.25 81.72 107.25 87.42 107.38 78.02 107.4 67.22 107.43 89.53 107.61 87.87 107.77 90.3 108.35 88.39 108.45 60.99 108.4 67.44 108.5 88.39 108.58 89.22 108.61 89.86 108.97 85.2 109 81.84 109.08 90.15 109.26 89.4 109.42 82.35 109.79 90.51 110.13 88.07 110.34 86.97 110.54 90.09 110.85 88.03 110.83 89.01 110.98 90.11 111.41 87.42 111.48 65.42 111.43 72.53 111.46 77.85 111.48 84.17 111.58 82.78 111.61 81.75 111.61 89.83 111.77 86.03 111.79 82.61 111.82 90.11 112.16 89.29 112.24 79.54 112.34 82.82 112.4 63.64 112.37 69.12 112.39 76.44 112.53 69.32 112.5 73.44 112.66 89.61 112.87 86.44 112.92 79.53 113 89.56 113.26 90.01 113.2 88.6 113.49 89.39 113.52 90.11 114.14 90.66 114.59 89.39 114.88 88.36 114.96 90.57 115.3 89.78 115.4 72.18 115.48 89.67 115.54 90.39 116.18 90.83 116.47 90.04 117.17 90.91 117.26 81.48 117.28 63.35 117.34 55.5"/>
    </g>
    <path class="cls-7" d="M143.2,75.07l-12.16,5.44c-.25.11-.52-.07-.52-.34v-10.88c0-.27.28-.45.52-.34l12.16,5.44c.29.13.29.55,0,.68Z"/>
    <path class="cls-7" d="M98.45,119.82l5.44-12.16c.11-.25-.07-.52-.34-.52h-10.88c-.27,0-.45.28-.34.52l5.44,12.16c.13.29.55.29.68,0Z"/>
    <g>
      <circle class="cls-2" cx="554.37" cy="176.42" r="28.8"/>
      <rect class="cls-21" x="531.1" y="163.27" width="15.58" height="5.61"/>
      <rect class="cls-21" x="558.54" y="163.27" width="9.04" height="5.61"/>
      <rect class="cls-21" x="568.61" y="163.27" width="9.04" height="5.61"/>
      <rect class="cls-21" x="548.48" y="163.27" width="9.04" height="5.61"/>
      <rect class="cls-21" x="531.1" y="170.68" width="15.58" height="5.61"/>
      <rect class="cls-21" x="531.1" y="177.32" width="15.58" height="5.61"/>
      <rect class="cls-21" x="531.1" y="183.95" width="15.58" height="5.61"/>
      <g>
        <rect class="cls-21" x="558.54" y="170.68" width="9.04" height="5.61"/>
        <rect class="cls-21" x="568.61" y="170.68" width="9.04" height="5.61"/>
        <rect class="cls-21" x="548.48" y="170.68" width="9.04" height="5.61"/>
      </g>
      <g>
        <rect class="cls-21" x="558.54" y="183.95" width="9.04" height="5.61"/>
        <rect class="cls-21" x="568.61" y="183.95" width="9.04" height="5.61"/>
        <rect class="cls-21" x="548.48" y="183.95" width="9.04" height="5.61"/>
      </g>
      <g>
        <rect class="cls-21" x="558.54" y="177.32" width="9.04" height="5.61"/>
        <rect class="cls-21" x="568.61" y="177.32" width="9.04" height="5.61"/>
        <rect class="cls-21" x="548.48" y="177.32" width="9.04" height="5.61"/>
      </g>
    </g>
    <text class="cls-18" transform="translate(589.95 172.42)"><tspan x="0" y="0">Protein</tspan><tspan x="-4.98" y="14.4">Crosstab</tspan></text>
    <g>
      <circle class="cls-2" cx="565.6" cy="112.83" r="28.8"/>
      <rect class="cls-21" x="542.33" y="99.68" width="15.58" height="5.61"/>
      <rect class="cls-21" x="569.78" y="99.68" width="9.04" height="5.61"/>
      <rect class="cls-21" x="579.84" y="99.68" width="9.04" height="5.61"/>
      <rect class="cls-21" x="559.71" y="99.68" width="9.04" height="5.61"/>
      <rect class="cls-21" x="542.33" y="107.09" width="15.58" height="5.61"/>
      <rect class="cls-21" x="542.33" y="113.73" width="15.58" height="5.61"/>
      <rect class="cls-21" x="542.33" y="120.36" width="15.58" height="5.61"/>
      <g>
        <rect class="cls-21" x="569.78" y="107.09" width="9.04" height="5.61"/>
        <rect class="cls-21" x="579.84" y="107.09" width="9.04" height="5.61"/>
        <rect class="cls-21" x="559.71" y="107.09" width="9.04" height="5.61"/>
      </g>
      <g>
        <rect class="cls-21" x="569.78" y="120.36" width="9.04" height="5.61"/>
        <rect class="cls-21" x="579.84" y="120.36" width="9.04" height="5.61"/>
        <rect class="cls-21" x="559.71" y="120.36" width="9.04" height="5.61"/>
      </g>
      <g>
        <rect class="cls-21" x="569.78" y="113.73" width="9.04" height="5.61"/>
        <rect class="cls-21" x="579.84" y="113.73" width="9.04" height="5.61"/>
        <rect class="cls-21" x="559.71" y="113.73" width="9.04" height="5.61"/>
      </g>
    </g>
    <text class="cls-18" transform="translate(589.26 45.23)"><tspan x="0" y="0">QC</tspan><tspan x="-4.29" y="14.4">Plots</tspan></text>
    <text class="cls-18" transform="translate(599.84 108.83)"><tspan x="0" y="0">Peptide</tspan><tspan x="-3.64" y="14.4">Crosstab</tspan></text>
    <path class="cls-7" d="M529.15,74.94l-4.75,12.45c-.1.25-.42.32-.61.13l-7.7-7.7c-.19-.19-.12-.52.13-.61l12.45-4.75c.3-.11.6.18.48.48Z"/>
    <path class="cls-7" d="M528.66,151.19l-12.45-4.75c-.25-.1-.32-.42-.13-.61l7.7-7.7c.19-.19.52-.12.61.13l4.75,12.45c.11.3-.18.6-.48.48Z"/>
    <path class="cls-7" d="M532.98,113.17l-12.16,5.44c-.25.11-.52-.07-.52-.34v-10.88c0-.27.28-.45.52-.34l12.16,5.44c.29.13.29.55,0,.68Z"/>
    <g>
      <path class="cls-3" d="M459.1,93.54c0-5.26,4.3-9.52,9.6-9.52h38.4c5.3,0,9.6,4.26,9.6,9.52v38.57c0,5.26-4.3,9.52-9.6,9.52h-38.4c-5.3,0-9.6-4.26-9.6-9.52v-38.57Z"/>
      <text class="cls-20" transform="translate(465.46 107.83)"><tspan x="0" y="0">Create</tspan><tspan x="-3.74" y="18">Outputs</tspan></text>
    </g>
    <g>
      <circle class="cls-2" cx="554.37" cy="49.23" r="28.8"/>
      <g>
        <rect class="cls-22" x="551.41" y="27.49" width="6.35" height="37.5"/>
        <rect class="cls-22" x="559.45" y="33.99" width="4.66" height="31"/>
        <rect class="cls-22" x="545.05" y="33.99" width="4.24" height="31"/>
        <rect class="cls-22" x="565.81" y="45.49" width="4.24" height="19.5"/>
        <rect class="cls-22" x="539.12" y="45.49" width="4.24" height="19.5"/>
        <rect class="cls-22" x="532.77" y="55.99" width="4.24" height="9"/>
        <rect class="cls-22" x="572.16" y="55.99" width="3.81" height="9"/>
      </g>
    </g>
    <path class="cls-7" d="M455.28,113.17l-12.16,5.44c-.25.11-.52-.07-.52-.34v-10.88c0-.27.28-.45.52-.34l12.16,5.44c.29.13.29.55,0,.68Z"/>
    <g>
      <path class="cls-3" d="M381.39,93.54c0-5.26,4.3-9.52,9.6-9.52h38.4c5.3,0,9.6,4.26,9.6,9.52v38.57c0,5.26-4.3,9.52-9.6,9.52h-38.4c-5.3,0-9.6-4.26-9.6-9.52v-38.57Z"/>
      <text class="cls-20" transform="translate(394.81 107.83)"><tspan x="0" y="0">FDR</tspan><tspan x="-8.7" y="18">Control</tspan></text>
    </g>
    <path class="cls-7" d="M377.57,113.17l-12.16,5.44c-.25.11-.52-.07-.52-.34v-10.88c0-.27.28-.45.52-.34l12.16,5.44c.29.13.29.55,0,.68Z"/>
    <g>
      <path class="cls-3" d="M303.69,93.54c0-5.26,4.3-9.52,9.6-9.52h38.4c5.3,0,9.6,4.26,9.6,9.52v38.57c0,5.26-4.3,9.52-9.6,9.52h-38.4c-5.3,0-9.6-4.26-9.6-9.52v-38.57Z"/>
      <text class="cls-20" transform="translate(305.04 116.83)"><tspan x="0" y="0">MERGE</tspan></text>
    </g>
    <g>
      <circle class="cls-2" cx="392.48" cy="177.94" r="28.8"/>
      <rect class="cls-21" x="369.21" y="164.79" width="15.58" height="5.61"/>
      <rect class="cls-21" x="396.65" y="164.79" width="9.04" height="5.61"/>
      <rect class="cls-21" x="406.71" y="164.79" width="9.04" height="5.61"/>
      <rect class="cls-21" x="386.59" y="164.79" width="9.04" height="5.61"/>
      <rect class="cls-21" x="369.21" y="172.2" width="15.58" height="5.61"/>
      <rect class="cls-21" x="369.21" y="178.84" width="15.58" height="5.61"/>
      <rect class="cls-21" x="369.21" y="185.48" width="15.58" height="5.61"/>
      <g>
        <rect class="cls-21" x="396.65" y="172.2" width="9.04" height="5.61"/>
        <rect class="cls-21" x="406.71" y="172.2" width="9.04" height="5.61"/>
        <rect class="cls-21" x="386.59" y="172.2" width="9.04" height="5.61"/>
      </g>
      <g>
        <rect class="cls-21" x="396.65" y="185.48" width="9.04" height="5.61"/>
        <rect class="cls-21" x="406.71" y="185.48" width="9.04" height="5.61"/>
        <rect class="cls-21" x="386.59" y="185.48" width="9.04" height="5.61"/>
      </g>
      <g>
        <rect class="cls-21" x="396.65" y="178.84" width="9.04" height="5.61"/>
        <rect class="cls-21" x="406.71" y="178.84" width="9.04" height="5.61"/>
        <rect class="cls-21" x="386.59" y="178.84" width="9.04" height="5.61"/>
      </g>
    </g>
    <path class="cls-7" d="M370.37,151.04l-12.45-4.75c-.25-.1-.32-.42-.13-.61l7.7-7.7c.19-.19.52-.12.61.13l4.75,12.45c.11.3-.18.6-.48.48Z"/>
    <text class="cls-18" transform="translate(160.89 265.55)"><tspan x="0" y="0">(OR)</tspan><tspan x="-21.92" y="14.4">Metagenome</tspan></text>
  </g>
</svg>